<?xml version="1.0" encoding="UTF-8"?>
<svg version="1.1" xmlns="http://www.w3.org/2000/svg" viewBox="200 450 1600 1100" width="2000" height="2000">
<path d="M0 0 C10.54047161 9.66815671 17.25022046 22.80294754 18.26171875 37.078125 C18.89253944 55.27915722 10.61149274 69.55533452 1.58203125 84.78515625 C0.34184889 86.89417911 -0.89771313 89.00356686 -2.13671875 91.11328125 C-2.7709375 92.19158203 -3.40515625 93.26988281 -4.05859375 94.38085938 C-7.20530983 99.75010358 -10.31205494 105.14223816 -13.41796875 110.53515625 C-14.35080688 112.15381592 -14.35080688 112.15381592 -15.30249023 113.80517578 C-16.56496606 115.99598576 -17.82725431 118.18690385 -19.08935547 120.37792969 C-22.21727023 125.80675567 -25.34905323 131.23334906 -28.48046875 136.66015625 C-29.73048754 138.82681208 -30.98048753 140.99347875 -32.23046875 143.16015625 C-84.73046874 234.16015624 -84.73046874 234.16015624 -86.60522461 237.40966797 C-87.85611355 239.57791889 -89.10692727 241.74621322 -90.35766602 243.91455078 C-93.4684521 249.3073354 -96.58051113 254.69937718 -99.6953125 260.08984375 C-106.15066017 271.26464727 -112.58376219 282.45169928 -118.98046875 293.66015625 C-125.9900858 305.94256914 -133.04619295 318.1977342 -140.12158203 330.44238281 C-143.2437148 335.8468627 -146.36188079 341.25363037 -149.48046875 346.66015625 C-150.73044997 348.82683375 -151.98044996 350.99350042 -153.23046875 353.16015625 C-153.84921875 354.23265625 -154.46796875 355.30515625 -155.10546875 356.41015625 C-156.98046875 359.66015625 -158.85546875 362.91015625 -160.73046875 366.16015625 C-161.34913818 367.23257568 -161.96780762 368.30499512 -162.60522461 369.40991211 C-163.85583178 371.57751181 -165.10664574 373.74499221 -166.35766602 375.91235352 C-169.47507913 381.31378779 -172.58892278 386.71721763 -175.6953125 392.125 C-178.79845008 397.5246467 -181.91246797 402.91786632 -185.03613281 408.30566406 C-186.37091705 410.60851884 -187.7037017 412.91243704 -189.03417969 415.21777344 C-203.83614584 440.8372426 -203.83614584 440.8372426 -212.98046875 451.66015625 C-214.14835937 453.10841797 -214.14835937 453.10841797 -215.33984375 454.5859375 C-217.52825076 457.29941532 -219.74513045 459.98528514 -221.98046875 462.66015625 C-222.88925781 463.75650391 -222.88925781 463.75650391 -223.81640625 464.875 C-227.22827026 468.89667681 -230.82286369 472.43409505 -234.8515625 475.8359375 C-236.29099091 477.06935597 -237.69978996 478.33929192 -239.078125 479.640625 C-277.67176802 515.98352383 -330.67567144 533.93413382 -383.10546875 533.84765625 C-384.20711868 533.84625137 -384.20711868 533.84625137 -385.33102417 533.84481812 C-395.9973376 533.81533189 -406.45779465 533.62382903 -416.98046875 531.66015625 C-417.89054687 531.49354492 -418.800625 531.32693359 -419.73828125 531.15527344 C-465.1925244 522.65462525 -511.75948783 501.88312446 -542.19140625 465.75390625 C-543.4108809 464.32674815 -544.66839727 462.93144146 -545.95703125 461.56640625 C-559.60469299 447.07507087 -569.41215812 430.18835776 -579.125 412.93554688 C-582.00335616 407.85449078 -584.96189192 402.82124846 -587.91796875 397.78515625 C-593.65961976 387.96972907 -599.31371137 378.10548509 -604.94677734 368.22753906 C-611.2997077 357.08863121 -617.70593506 345.98083045 -624.12158203 334.87792969 C-627.87024909 328.38890529 -631.61355542 321.89678675 -635.35791016 315.40527344 C-638.46865214 310.01267311 -641.58060202 304.62077803 -644.6953125 299.23046875 C-651.15066079 288.05566414 -657.5835891 276.86851504 -663.98046875 265.66015625 C-669.33746531 256.27474405 -674.70917993 246.89803984 -680.10546875 237.53515625 C-680.70875 236.48714844 -681.31203125 235.43914062 -681.93359375 234.359375 C-685.18117458 228.73072034 -688.48415313 223.14802946 -691.90966797 217.62548828 C-692.98046875 215.66015625 -692.98046875 215.66015625 -692.98046875 213.66015625 C-693.64046875 213.66015625 -694.30046875 213.66015625 -694.98046875 213.66015625 C-695.38990723 214.73946411 -695.38990723 214.73946411 -695.80761719 215.84057617 C-696.96107646 218.61353645 -698.27785562 221.15494995 -699.74609375 223.7734375 C-700.29894043 224.76126221 -700.85178711 225.74908691 -701.42138672 226.7668457 C-702.31688232 228.35372192 -702.31688232 228.35372192 -703.23046875 229.97265625 C-703.85453613 231.08278076 -704.47860352 232.19290527 -705.12158203 233.33666992 C-709.86497154 241.7474629 -714.70509611 250.09958724 -719.58911133 258.42944336 C-724.08438096 266.10172721 -728.51415785 273.81014294 -732.91796875 281.53515625 C-739.94608776 293.86064408 -747.02287476 306.15737981 -754.12158203 318.44238281 C-757.2437148 323.8468627 -760.36188079 329.25363037 -763.48046875 334.66015625 C-764.73044997 336.82683375 -765.98044996 338.99350042 -767.23046875 341.16015625 C-768.15859375 342.76890625 -768.15859375 342.76890625 -769.10546875 344.41015625 C-780.98046875 364.99348958 -792.85546875 385.57682292 -804.73046875 406.16015625 C-805.34929932 407.23281738 -805.96812988 408.30547852 -806.60571289 409.41064453 C-807.85482393 411.57572696 -809.10401004 413.74076607 -810.35327148 415.90576172 C-813.49249184 421.34631331 -816.63037438 426.78762841 -819.765625 432.23046875 C-826.37778934 443.70612587 -833.01213108 455.16799475 -839.70019531 466.59960938 C-843.44650043 473.00915454 -847.15221481 479.44081448 -850.84155273 485.88330078 C-873.89192861 526.06645322 -873.89192861 526.06645322 -896.16796875 532.9140625 C-899.85979174 533.8934211 -903.15806449 534.41354952 -906.98046875 534.66015625 C-907.71265625 534.72332031 -908.44484375 534.78648437 -909.19921875 534.8515625 C-922.63971884 535.5279513 -935.93764752 529.79032679 -946.23046875 521.41015625 C-955.88272833 512.38953737 -962.42378611 499.93211621 -963.21875 486.69140625 C-963.81320579 462.78371521 -951.53057592 445.14804079 -939.7890625 425.171875 C-935.79592467 418.36687242 -931.8843389 411.51652731 -927.98046875 404.66015625 C-923.0274217 395.96572374 -918.03667845 387.29517267 -912.98046875 378.66015625 C-907.94857085 370.06498335 -902.97657751 361.43703403 -898.04296875 352.78515625 C-891.01443368 340.45990429 -883.93806441 328.16293558 -876.83935547 315.87792969 C-873.7172227 310.4734498 -870.59905671 305.06668213 -867.48046875 299.66015625 C-866.23048753 297.49347875 -864.98048754 295.32681208 -863.73046875 293.16015625 C-863.11171875 292.08765625 -862.49296875 291.01515625 -861.85546875 289.91015625 C-836.54296875 246.03515625 -836.54296875 246.03515625 -811.23046875 202.16015625 C-810.61163818 201.08749512 -809.99280762 200.01483398 -809.35522461 198.90966797 C-808.10611357 196.74458554 -806.85692746 194.57954643 -805.60766602 192.41455078 C-802.46844566 186.97399919 -799.33056312 181.53268409 -796.1953125 176.08984375 C-789.60583653 164.6537882 -782.98679038 153.23622932 -776.32226562 141.84375 C-772.15001814 134.69801526 -768.03556387 127.52041474 -763.94064331 120.33023071 C-731.78017501 63.87978441 -731.78017501 63.87978441 -709.8515625 56.625 C-695.02588296 52.71393116 -681.07693971 53.94874962 -667.35546875 60.78515625 C-657.5694146 66.67841538 -651.51084122 73.91250052 -645.98046875 83.66015625 C-644.86759418 85.57705908 -643.75429834 87.49371738 -642.640625 89.41015625 C-641.44053123 91.49298566 -640.24135249 93.57634249 -639.04296875 95.66015625 C-638.0504747 97.38323619 -637.05797925 99.10631532 -636.06539917 100.8293457 C-635.0434949 102.60352461 -634.02196525 104.3779188 -633.00048828 106.15234375 C-629.83105416 111.65720037 -626.65539013 117.15846329 -623.48046875 122.66015625 C-622.23044054 124.82680664 -620.9804406 126.99347334 -619.73046875 129.16015625 C-619.11171875 130.23265625 -618.49296875 131.30515625 -617.85546875 132.41015625 C-612.23046875 142.16015625 -612.23046875 142.16015625 -610.35522461 145.41064453 C-609.10611357 147.57572696 -607.85692746 149.74076607 -606.60766602 151.90576172 C-603.46844566 157.34631331 -600.33056312 162.78762841 -597.1953125 168.23046875 C-591.14991716 178.72247719 -585.08936656 189.20497301 -578.98046875 199.66015625 C-572.23345681 211.20745141 -565.54707557 222.78917652 -558.87158203 234.37792969 C-555.74366727 239.80675567 -552.61188427 245.23334906 -549.48046875 250.66015625 C-548.23044996 252.82681208 -546.98044997 254.99347875 -545.73046875 257.16015625 C-545.11171875 258.23265625 -544.49296875 259.30515625 -543.85546875 260.41015625 C-508.23046875 322.16015625 -508.23046875 322.16015625 -506.35424805 325.41259766 C-505.10869304 327.57134328 -503.86276421 329.72987326 -502.61645508 331.88818359 C-499.42029031 337.42430051 -496.23142769 342.96442968 -493.0546875 348.51171875 C-479.9455795 372.46474825 -479.9455795 372.46474825 -462.98046875 393.66015625 C-462.15546875 394.52640625 -461.33046875 395.39265625 -460.48046875 396.28515625 C-459.24296875 397.46078125 -459.24296875 397.46078125 -457.98046875 398.66015625 C-457.38363281 399.25183594 -456.78679687 399.84351563 -456.171875 400.453125 C-436.98012322 418.65887852 -408.97106654 426.78077444 -382.98046875 426.66015625 C-370.60335852 426.21208422 -358.76683744 424.53494183 -346.98046875 420.66015625 C-345.88605469 420.30050781 -344.79164063 419.94085937 -343.6640625 419.5703125 C-330.57532932 414.89238981 -319.30009833 407.94625692 -308.98046875 398.66015625 C-308.16191406 397.94730469 -307.34335938 397.23445313 -306.5 396.5 C-292.23221688 383.27564776 -283.46120479 364.80921255 -274.02796936 348.05639648 C-270.53523667 341.85725177 -266.98049093 335.69442567 -263.41796875 329.53515625 C-262.17703706 327.38674548 -260.93615158 325.23830801 -259.6953125 323.08984375 C-259.08284668 322.02991211 -258.47038086 320.96998047 -257.83935547 319.87792969 C-254.7172227 314.4734498 -251.59905671 309.06668213 -248.48046875 303.66015625 C-247.23048753 301.49347875 -245.98048754 299.32681208 -244.73046875 297.16015625 C-244.11171875 296.08765625 -243.49296875 295.01515625 -242.85546875 293.91015625 C-217.54296875 250.03515625 -217.54296875 250.03515625 -192.23046875 206.16015625 C-191.61163818 205.08749512 -190.99280762 204.01483398 -190.35522461 202.90966797 C-189.10611357 200.74458554 -187.85692746 198.57954643 -186.60766602 196.41455078 C-183.46844566 190.97399919 -180.33056312 185.53268409 -177.1953125 180.08984375 C-170.57823983 168.60566805 -163.93412898 157.13818731 -157.24755859 145.69433594 C-151.08127821 135.13395343 -144.97550925 124.53888859 -138.87158203 113.94238281 C-135.74366727 108.51355683 -132.61188427 103.08696344 -129.48046875 97.66015625 C-128.23044996 95.49350042 -126.98044997 93.32683375 -125.73046875 91.16015625 C-121.98046875 84.66015625 -121.98046875 84.66015625 -118.23046875 78.16015625 C-117.61163818 77.08749512 -116.99280762 76.01483398 -116.35522461 74.90966797 C-115.10611357 72.74458554 -113.85692746 70.57954643 -112.60766602 68.41455078 C-108.83690371 61.87948013 -105.06869905 55.34294601 -101.3034668 48.8046875 C-100.05323975 46.63674233 -98.80082114 44.47005944 -97.54614258 42.3046875 C-94.41773328 36.90491117 -91.31966387 31.49178018 -88.27734375 26.04296875 C-77.87074787 7.53987087 -68.0010587 -4.93644235 -46.98046875 -11.33984375 C-30.45551034 -15.55898207 -13.10933624 -10.29160211 0 0 Z " fill="#2462EB" transform="translate(1538.98046875,817.33984375)"/>
<path d="M0 0 C14.51265018 -0.63791869 27.85347586 4.76627632 38.9453125 13.90625 C50.26591663 24.66601686 55.31228547 38.82554011 56.0703125 54.15625 C55.47128736 68.51749369 49.39357738 80.13117442 42.1953125 92.28125 C41.19686816 93.98861321 40.19843607 95.69598372 39.20072937 97.40377808 C38.17294594 99.16109786 37.14207111 100.91657671 36.11083984 102.671875 C32.87471565 108.18801761 29.69594425 113.73729007 26.5078125 119.28125 C21.1482114 128.57948291 15.75172877 137.85562379 10.33740234 147.12207031 C4.17112196 157.68245282 -1.934647 168.27751766 -8.03857422 178.87402344 C-11.78996774 185.38496257 -15.54659744 191.89288194 -19.30224609 198.40136719 C-22.44150996 203.84210336 -25.57950247 209.28356477 -28.71484375 214.7265625 C-35.33191642 226.2107382 -41.97602727 237.67821894 -48.66259766 249.12207031 C-54.82887804 259.68245282 -60.934647 270.27751766 -67.03857422 280.87402344 C-70.16648898 286.30284942 -73.29827198 291.72944281 -76.4296875 297.15625 C-77.67970629 299.32290583 -78.92970628 301.4895725 -80.1796875 303.65625 C-92.6796875 325.32291667 -105.1796875 346.98958333 -117.6796875 368.65625 C-118.29851807 369.72891113 -118.91734863 370.80157227 -119.55493164 371.90673828 C-120.80404268 374.07182071 -122.05322879 376.23685982 -123.30249023 378.40185547 C-126.44171059 383.84240706 -129.57959313 389.28372216 -132.71484375 394.7265625 C-140.57057919 408.36107829 -148.44579714 421.98390241 -156.40625 435.55761719 C-157.36631875 437.19527292 -158.32486654 438.83382216 -159.28125 440.47363281 C-169.79865674 458.49047974 -179.69906284 472.44545192 -200.5234375 478.96875 C-215.56657616 482.48532787 -229.64287074 479.67687154 -242.88671875 472.09765625 C-255.85945545 463.82108354 -262.02917569 451.17539757 -269.4296875 438.09375 C-270.48500885 436.23632229 -271.54146397 434.37954268 -272.59803772 432.52282715 C-273.31718271 431.25907219 -274.03604414 429.99515582 -274.75462341 428.7310791 C-278.30789039 422.4828349 -281.89632083 416.25506623 -285.4921875 410.03125 C-286.10570068 408.96914307 -286.71921387 407.90703613 -287.35131836 406.81274414 C-288.58955504 404.66936083 -289.82791737 402.5260501 -291.06640625 400.3828125 C-292.950038 397.12100993 -294.83091071 393.85763156 -296.7109375 390.59375 C-302.73408489 380.13912049 -308.77491195 369.69576558 -314.8671875 359.28125 C-320.28889928 350.01125223 -325.63173665 340.69793248 -330.94891357 331.36779785 C-336.15013879 322.2434216 -341.40996628 313.15492226 -346.71313477 304.08935547 C-352.86735492 293.56540375 -358.95338746 283.00244863 -365.03857422 272.43847656 C-368.16648898 267.00965058 -371.29827198 261.58305719 -374.4296875 256.15625 C-375.67970629 253.98959417 -376.92970628 251.8229275 -378.1796875 249.65625 C-379.1078125 248.0475 -379.1078125 248.0475 -380.0546875 246.40625 C-400.6796875 210.65625 -400.6796875 210.65625 -402.5559082 207.40356445 C-403.80118122 205.24546981 -405.04710818 203.08775237 -406.29370117 200.93041992 C-409.49659789 195.38557517 -412.68651444 189.83385375 -415.85546875 184.26953125 C-433.83078283 152.76332421 -452.38292906 124.38906269 -488.9296875 113.15625 C-498.07282361 110.70870915 -507.44592136 108.51078331 -516.9296875 108.15625 C-518.51136719 108.07890625 -518.51136719 108.07890625 -520.125 108 C-548.19475887 107.27249005 -575.83815026 115.0951358 -596.9296875 134.15625 C-597.94043283 135.14538795 -598.94257067 136.14353071 -599.9296875 137.15625 C-600.5896875 137.81625 -601.2496875 138.47625 -601.9296875 139.15625 C-602.5896875 139.15625 -603.2496875 139.15625 -603.9296875 139.15625 C-604.17589844 139.71699219 -604.42210937 140.27773438 -604.67578125 140.85546875 C-606.15368351 143.56725825 -607.96339443 145.639395 -609.9921875 147.96875 C-615.44722696 154.57358384 -619.67938411 161.74223208 -623.9296875 169.15625 C-625.05400043 171.09935604 -626.17905478 173.04203321 -627.3046875 174.984375 C-630.53197985 180.5604618 -633.746444 186.14384691 -636.95800781 191.72900391 C-640.10993982 197.20780797 -643.27009547 202.68186113 -646.4296875 208.15625 C-647.6797298 210.32289226 -648.92972974 212.48955897 -650.1796875 214.65625 C-697.6796875 296.98958333 -745.1796875 379.32291667 -792.6796875 461.65625 C-793.29884033 462.7294751 -793.91799316 463.8027002 -794.5559082 464.90844727 C-795.8017452 467.06784395 -797.04767568 469.22718669 -798.29370117 471.38647461 C-802.13574279 478.04484078 -805.97411176 484.7053083 -809.81005859 491.3671875 C-811.69913098 494.64406212 -813.5933036 497.91794394 -815.48828125 501.19140625 C-817.60733306 504.85359829 -819.70586619 508.52555629 -821.77734375 512.21484375 C-831.56865008 529.52655332 -842.43140242 540.39485197 -861.9296875 546.15625 C-874.85951681 549.17068235 -888.29892095 546.14436743 -899.9296875 540.15625 C-904.80893357 537.0814349 -909.0547241 533.42864554 -912.9296875 529.15625 C-913.48527344 528.54394531 -914.04085938 527.93164062 -914.61328125 527.30078125 C-924.73206359 515.35408984 -926.86641506 501.3223153 -925.9296875 486.15625 C-924.69743645 476.10108145 -919.92781795 467.77857387 -914.9296875 459.15625 C-914.43533203 458.30015137 -913.94097656 457.44405273 -913.43164062 456.56201172 C-910.53940648 451.56370526 -907.62670459 446.57768465 -904.703125 441.59765625 C-900.93538531 435.17648246 -897.20864439 428.73221067 -893.4921875 422.28125 C-892.87013428 421.20190186 -892.24808105 420.12255371 -891.60717773 419.01049805 C-890.34488126 416.81992265 -889.0827558 414.62924869 -887.82080078 412.43847656 C-884.69288602 407.00965058 -881.56110302 401.58305719 -878.4296875 396.15625 C-877.17966871 393.98959417 -875.92966872 391.8229275 -874.6796875 389.65625 C-837.1796875 324.65625 -837.1796875 324.65625 -835.30493164 321.40673828 C-834.0540427 319.23848736 -832.80322898 317.07019303 -831.55249023 314.90185547 C-828.44170415 309.50907085 -825.32964512 304.11702907 -822.21484375 298.7265625 C-815.75949608 287.55175898 -809.32639406 276.36470697 -802.9296875 265.15625 C-795.92168891 252.87667301 -788.86694124 240.62450804 -781.79296875 228.3828125 C-779.909337 225.12100993 -778.02846429 221.85763156 -776.1484375 218.59375 C-769.53059582 207.10665905 -762.88481518 195.63679255 -756.19677734 184.19042969 C-748.73364547 171.40905705 -741.35528746 158.57873563 -733.96972656 145.75244141 C-730.1817474 139.17465409 -726.38992697 132.59912355 -722.58984375 126.02832031 C-721.54676638 124.22379647 -720.50491546 122.41856257 -719.46484375 120.61230469 C-708.65264307 101.84765206 -696.91713879 83.8952844 -681.9296875 68.15625 C-681.37571289 67.56972656 -680.82173828 66.98320313 -680.25097656 66.37890625 C-642.87744834 27.04668067 -590.82235927 2.9009808 -536.39746094 1.03515625 C-486.31867905 -0.22468732 -437.81324565 11.00538597 -396.9296875 41.15625 C-395.98561035 41.85016846 -395.98561035 41.85016846 -395.02246094 42.55810547 C-363.0926421 66.29063836 -342.56029843 97.13395064 -322.9296875 131.15625 C-321.69404845 133.29429281 -320.45837139 135.43231366 -319.22265625 137.5703125 C-316.08491251 143.00270117 -312.95215394 148.43794916 -309.82080078 153.87402344 C-306.69288604 159.30284938 -303.56115019 164.72947007 -300.4296875 170.15625 C-296.66604831 176.67858275 -292.90324128 183.20138762 -289.14453125 189.7265625 C-283.09913546 200.21857172 -277.03847739 210.70100319 -270.9296875 221.15625 C-260.4971921 239.01494411 -250.18272481 256.94093191 -239.93206787 274.9045105 C-233.66898811 285.87959449 -227.36123787 296.82838296 -221.0390625 307.76953125 C-218.65742168 311.89176645 -216.28666653 316.01986849 -213.9296875 320.15625 C-207.45839314 309.22356918 -201.08210395 298.23821309 -194.74194336 287.22900391 C-190.49448254 279.85767611 -186.22267963 272.50114381 -181.9296875 265.15625 C-174.54546879 252.51885666 -167.23478583 239.83949645 -159.9296875 227.15625 C-152.05306161 213.48070686 -144.15848658 199.81664042 -136.19677734 186.19042969 C-130.03049696 175.63004718 -123.924728 165.03498234 -117.82080078 154.43847656 C-114.06940726 147.92753743 -110.31277756 141.41961806 -106.55712891 134.91113281 C-103.41786504 129.47039664 -100.27987253 124.02893523 -97.14453125 118.5859375 C-90.52745858 107.1017618 -83.88334773 95.63428106 -77.19677734 84.19042969 C-72.93985521 76.90001744 -68.710441 69.59409351 -64.4921875 62.28125 C-63.8731958 61.21189209 -63.2542041 60.14253418 -62.61645508 59.04077148 C-59.70687523 54.00779091 -56.81406275 48.96749741 -53.98554993 43.8885498 C-53.00459114 42.12932736 -52.01772627 40.37354902 -51.02905273 38.61865234 C-49.80064353 36.43415145 -48.5830507 34.24351329 -47.37915039 32.04541016 C-39.0041892 17.22716467 -28.08663309 6.81886296 -11.64453125 1.8671875 C-7.74239785 0.84533386 -4.00905063 0.32461948 0 0 Z " fill="#2462EB" transform="translate(1368.9296875,647.84375)"/>
<path d="M0 0 C1 2 1 2 0.2578125 4.390625 C-0.11601563 5.33421875 -0.48984375 6.2778125 -0.875 7.25 C-5.45543812 19.45923678 -5.56711087 32.73654755 -0.20019531 44.79736328 C5.23092806 56.0874638 11.90193154 66.8120846 18.24609375 77.6015625 C22.73488454 85.23780162 27.16535008 92.90750306 31.56665039 100.59448242 C34.4684174 105.65522237 37.39978352 110.68610055 40.4609375 115.65234375 C40.98727783 116.51883545 41.51361816 117.38532715 42.0559082 118.27807617 C43.02974729 119.87589188 44.01950073 121.46416355 45.02807617 123.0402832 C48.10378483 128.12916179 48.10378483 128.12916179 47.66015625 131.8515625 C45.19536592 136.52596486 42.58501203 141.08854661 39.875 145.625 C38.60034343 147.78313461 37.3269566 149.94201956 36.0546875 152.1015625 C35.38920898 153.22981445 34.72373047 154.35806641 34.03808594 155.52050781 C30.97813757 160.72904743 27.99368379 165.98070614 25.00640869 171.23114014 C19.72261363 180.51791707 14.39901089 189.77954625 9 199 C3.9681021 207.5951729 -1.00389124 216.22312222 -5.9375 224.875 C-12.96603507 237.20025196 -20.04240434 249.49722067 -27.14111328 261.78222656 C-30.26324605 267.18670645 -33.38141204 272.59347412 -36.5 278 C-37.74998122 280.1666775 -38.99998121 282.33334417 -40.25 284.5 C-41.178125 286.10875 -41.178125 286.10875 -42.125 287.75 C-49 299.66666667 -55.875 311.58333333 -62.75 323.5 C-63.36883057 324.57266113 -63.98766113 325.64532227 -64.62524414 326.75048828 C-65.87435518 328.91557071 -67.12354129 331.08060982 -68.37280273 333.24560547 C-71.51202309 338.68615706 -74.64990563 344.12747216 -77.78515625 349.5703125 C-84.39732059 361.04596962 -91.03166233 372.5078385 -97.71972656 383.93945312 C-101.46603168 390.34899829 -105.17174606 396.78065823 -108.86108398 403.22314453 C-131.91145986 443.40629697 -131.91145986 443.40629697 -154.1875 450.25390625 C-157.87932299 451.23326485 -161.17759574 451.75339327 -165 452 C-165.7321875 452.06316406 -166.464375 452.12632812 -167.21875 452.19140625 C-180.65925009 452.86779505 -193.95717877 447.13017054 -204.25 438.75 C-213.90225958 429.72938112 -220.44331736 417.27195996 -221.23828125 404.03125 C-221.83273704 380.12355896 -209.55010717 362.48788454 -197.80859375 342.51171875 C-193.81545592 335.70671617 -189.90387015 328.85637106 -186 322 C-181.04695295 313.30556749 -176.0562097 304.63501642 -171 296 C-165.9681021 287.4048271 -160.99610876 278.77687778 -156.0625 270.125 C-149.03396493 257.79974804 -141.95759566 245.50277933 -134.85888672 233.21777344 C-131.73675395 227.81329355 -128.61858796 222.40652588 -125.5 217 C-124.25001878 214.8333225 -123.00001879 212.66665583 -121.75 210.5 C-121.13125 209.4275 -120.5125 208.355 -119.875 207.25 C-103 178 -86.125 148.75 -69.25 119.5 C-68.63116943 118.42733887 -68.01233887 117.35467773 -67.37475586 116.24951172 C-66.12564482 114.08442929 -64.87645871 111.91939018 -63.62719727 109.75439453 C-60.48797691 104.31384294 -57.35009437 98.87252784 -54.21484375 93.4296875 C-47.62536778 81.99363195 -41.00632163 70.57607307 -34.34179688 59.18359375 C-29.47955061 50.85611024 -24.69990808 42.48262749 -19.92849731 34.10296631 C-13.41027828 22.66110975 -6.74502109 11.30947922 0 0 Z " fill="#37BCF8" transform="translate(797,900)"/>
<path d="M0 0 C14.51265018 -0.63791869 27.85347586 4.76627632 38.9453125 13.90625 C50.26591663 24.66601686 55.31228547 38.82554011 56.0703125 54.15625 C55.47128736 68.51749369 49.39357738 80.13117442 42.1953125 92.28125 C41.19686816 93.98861321 40.19843607 95.69598372 39.20072937 97.40377808 C38.17294594 99.16109786 37.14207111 100.91657671 36.11083984 102.671875 C32.87471565 108.18801761 29.69594425 113.73729007 26.5078125 119.28125 C21.1482114 128.57948291 15.75172877 137.85562379 10.33740234 147.12207031 C4.17112196 157.68245282 -1.934647 168.27751766 -8.03857422 178.87402344 C-11.78996774 185.38496257 -15.54659744 191.89288194 -19.30224609 198.40136719 C-22.44150996 203.84210336 -25.57950247 209.28356477 -28.71484375 214.7265625 C-35.33191642 226.2107382 -41.97602727 237.67821894 -48.66259766 249.12207031 C-54.82887804 259.68245282 -60.934647 270.27751766 -67.03857422 280.87402344 C-70.16648898 286.30284942 -73.29827198 291.72944281 -76.4296875 297.15625 C-77.67970629 299.32290583 -78.92970628 301.4895725 -80.1796875 303.65625 C-98.9296875 336.15625 -98.9296875 336.15625 -117.6796875 368.65625 C-118.29851807 369.72891113 -118.91734863 370.80157227 -119.55493164 371.90673828 C-120.80404268 374.07182071 -122.05322879 376.23685982 -123.30249023 378.40185547 C-126.44171059 383.84240706 -129.57959313 389.28372216 -132.71484375 394.7265625 C-138.95096675 405.54989167 -145.20160352 416.36446351 -151.4921875 427.15625 C-152.05172119 428.1167627 -152.61125488 429.07727539 -153.18774414 430.06689453 C-156.72333936 436.12411099 -160.30723477 442.15058325 -163.9296875 448.15625 C-165.13722188 444.53364685 -164.56079252 443.26576029 -163.4921875 439.65625 C-158.52326289 420.4246714 -165.77643342 405.43958815 -175.38452148 389.13354492 C-176.84249213 386.67272521 -178.30947074 384.21742432 -179.77929688 381.76367188 C-183.08998222 376.22856189 -186.28301634 370.62558142 -189.4921875 365.03125 C-193.008172 358.93216015 -196.5315897 352.83744243 -200.07106018 346.75195312 C-201.46186027 344.35983213 -202.8501801 341.9662764 -204.23825073 339.5725708 C-205.21766166 337.88598452 -206.20070397 336.20150866 -207.18383789 334.51708984 C-208.07317017 332.9830249 -208.07317017 332.9830249 -208.98046875 331.41796875 C-209.76417847 330.07158325 -209.76417847 330.07158325 -210.5637207 328.69799805 C-213.24679377 323.70542009 -213.24679377 323.70542009 -213.9296875 321.15625 C-213.09375 318.67456055 -213.09375 318.67456055 -211.5546875 316.04296875 C-210.98886963 315.05498291 -210.42305176 314.06699707 -209.84008789 313.04907227 C-209.20965576 311.99131592 -208.57922363 310.93355957 -207.9296875 309.84375 C-207.28829834 308.73507568 -206.64690918 307.62640137 -205.98608398 306.48413086 C-204.64302399 304.16811967 -203.2944753 301.85689378 -201.93310547 299.55175781 C-200.07594801 296.40414071 -198.23560236 293.24751639 -196.40234375 290.0859375 C-194.10787337 286.13403965 -191.80391064 282.18792331 -189.4921875 278.24609375 C-185.79755413 271.94054535 -182.1412151 265.61327466 -178.4921875 259.28125 C-177.87037598 258.20254639 -177.24856445 257.12384277 -176.60791016 256.01245117 C-174.71468851 252.72732749 -172.82207767 249.44185272 -170.9296875 246.15625 C-163.05306161 232.48070686 -155.15848658 218.81664042 -147.19677734 205.19042969 C-141.03049696 194.63004718 -134.924728 184.03498234 -128.82080078 173.43847656 C-125.06940726 166.92753743 -121.31277756 160.41961806 -117.55712891 153.91113281 C-114.41786504 148.47039664 -111.27987253 143.02893523 -108.14453125 137.5859375 C-101.52745858 126.1017618 -94.88334773 114.63428106 -88.19677734 103.19042969 C-83.93985974 95.90002519 -79.70912867 88.59484496 -75.4921875 81.28125 C-74.87174561 80.20536621 -74.25130371 79.12948242 -73.61206055 78.02099609 C-70.42710114 72.49567095 -67.24656249 66.96783619 -64.0703125 61.4375 C-60.95487119 56.01565843 -57.82726149 50.60102642 -54.68896484 45.19238281 C-53.53992979 43.20939643 -52.39426883 41.22445005 -51.25244141 39.23730469 C-41.2298739 21.82123846 -31.82792928 7.94558536 -11.64453125 1.8671875 C-7.74239785 0.84533386 -4.00905063 0.32461948 0 0 Z " fill="#37BCF8" transform="translate(1368.9296875,647.84375)"/>
<path d="M0 0 C3.77016416 1.25672139 4.00711403 2.29562331 5.86328125 5.72265625 C6.68783813 7.22397095 6.68783813 7.22397095 7.52905273 8.75561523 C8.41185913 10.39252319 8.41185913 10.39252319 9.3125 12.0625 C10.5788684 14.36821047 11.84714539 16.67287356 13.1171875 18.9765625 C13.44071701 19.5653569 13.76424652 20.15415131 14.09757996 20.76078796 C17.28124239 26.54347186 20.59466929 32.24582062 23.9375 37.9375 C25.09127885 39.90747419 26.24492301 41.87752726 27.3984375 43.84765625 C27.98077148 44.84168457 28.56310547 45.83571289 29.16308594 46.85986328 C32.47637437 52.52380743 35.77298867 58.19722993 39.0625 63.875 C39.68181396 64.938396 40.30112793 66.00179199 40.93920898 67.09741211 C51.75378275 85.78789722 57.02437769 101.59155812 51.33203125 122.96484375 C49.66353818 128.49180733 46.73280481 132.65054242 43 137 C42.53851562 137.63035156 42.07703125 138.26070312 41.6015625 138.91015625 C34.31960898 148.48613559 21.42642958 154.67324507 9.7265625 156.68359375 C-6.59928466 158.57814048 -20.22245106 154.73563073 -33.57421875 145.15234375 C-43.53982611 136.91252918 -50.01076846 125.40711952 -51.23925781 112.48291016 C-51.41949797 109.65293826 -51.51075927 106.83515151 -51.5625 104 C-51.60298462 102.66618286 -51.60298462 102.66618286 -51.64428711 101.30541992 C-51.57047942 88.4429649 -44.98397021 77.60830242 -38.625 66.8125 C-37.91583418 65.59249039 -37.20760186 64.37193774 -36.50024414 63.15087891 C-35.04964704 60.64971845 -33.59413713 58.15152671 -32.13427734 55.65576172 C-29.49492514 51.14071565 -26.88742765 46.60745732 -24.27905273 42.07446289 C-22.44702424 38.89154716 -20.61093235 35.71101272 -18.7734375 32.53125 C-15.03976737 26.06981135 -11.31030932 19.60594934 -7.58157349 13.1416626 C-5.97249587 10.35217069 -4.36319238 7.56280911 -2.75390625 4.7734375 C-2.22095947 3.84966309 -1.6880127 2.92588867 -1.13891602 1.97412109 C-0.76307373 1.32266113 -0.38723145 0.67120117 0 0 Z " fill="#2036B3" transform="translate(1154,971)"/>
<path d="M0 0 C11.88555991 9.3517519 18.94898563 19.94733802 21 35 C22.68692285 56.65707421 14.87831858 70.49895225 3.98974609 88.65380859 C0.58830278 94.37407633 -2.70516896 100.15547199 -6 105.9375 C-6.66850575 107.10817295 -7.33704413 108.27882727 -8.00561523 109.44946289 C-13.27902801 118.69253253 -18.48655567 127.9719196 -23.66015625 137.27124023 C-24.47419922 138.73219116 -24.47419922 138.73219116 -25.3046875 140.22265625 C-25.77890137 141.07609619 -26.25311523 141.92953613 -26.74169922 142.80883789 C-27.75909338 144.58049343 -28.86674679 146.30012018 -30 148 C-30.66 148 -31.32 148 -32 148 C-32.41137207 147.27748047 -32.82274414 146.55496094 -33.24658203 145.81054688 C-40.46705656 133.135181 -47.69841798 120.46767602 -55.0625 107.875 C-55.62203369 106.91698486 -56.18156738 105.95896973 -56.75805664 104.97192383 C-59.16503217 100.85083272 -61.57244949 96.73001304 -63.984375 92.61181641 C-66.01669214 89.14068233 -68.03962208 85.66414326 -70.0625 82.1875 C-70.6819751 81.13224121 -71.3014502 80.07698242 -71.93969727 78.98974609 C-81.71727247 62.14441525 -87.06225099 47.72559759 -82.03125 28.23046875 C-77.76808311 14.87577551 -69.98236492 4.66014428 -57.90625 -2.53125 C-39.5930231 -11.78632166 -17.11387306 -12.13097761 0 0 Z " fill="#2036B3" transform="translate(876,881)"/>
<path d="M0 0 C10.50442365 10.17669943 16.40605665 22.08073087 17.5625 36.6875 C17.72024498 52.33930763 12.42252695 66.27045076 1.5625 77.6875 C-12.40090031 88.99730523 -25.66559059 92.85996695 -43.4375 91.6875 C-47.30969202 91.08851293 -50.7886491 90.10200707 -54.4375 88.6875 C-55.65953125 88.22923828 -55.65953125 88.22923828 -56.90625 87.76171875 C-69.56300228 82.25442939 -79.5893565 71.11832333 -84.74609375 58.48046875 C-89.69313046 43.50241642 -88.79718007 28.63239124 -81.859375 14.46484375 C-74.62951939 1.32409268 -64.21081775 -6.87355891 -49.92578125 -11.6015625 C-32.2281866 -16.65801812 -13.82998622 -11.8542739 0 0 Z " fill="#2462EB" transform="translate(1629.4375,662.3125)"/>
<path d="M0 0 C0.85464844 0.4125 1.70929688 0.825 2.58984375 1.25 C15.36978224 8.18149206 23.4018577 18.86912685 28.203125 32.2890625 C32.39875463 46.56242997 30.47698677 61.49587824 23.5703125 74.5234375 C15.67675899 86.97247462 4.21718993 95.47023767 -9.88354492 99.54418945 C-24.03475455 102.59186605 -38.56983485 100.023186 -50.8125 92.6875 C-64.16567854 83.62573035 -71.54587902 71.0660948 -74.75 55.3125 C-74.8325 54.219375 -74.915 53.12625 -75 52 C-75.103125 50.700625 -75.20625 49.40125 -75.3125 48.0625 C-75.07841879 32.87323059 -68.70626563 20.22107643 -58.4765625 9.32421875 C-43.21080052 -5.00248216 -19.05987057 -9.31169249 0 0 Z " fill="#2462EB" transform="translate(428,1250)"/>
</svg>
